<svg width="23" height="24" viewBox="0 0 23 24" fill="none" xmlns="http://www.w3.org/2000/svg">
<path d="M3.97946 10.8423L3.97946 8.43164C3.97946 3.68164 5.12525 2.49414 9.70841 2.49414L14.2916 2.49414C16.5832 2.49414 18.0154 2.79102 18.8747 3.68164C19.7341 4.57226 20.0205 6.05664 20.0205 8.43164L20.0205 15.5566C20.0205 20.3066 18.8747 21.4941 14.2916 21.4941L9.70842 21.4941C5.12525 21.4941 3.97946 20.3066 3.97946 15.5566" stroke="#FF6492" stroke-width="1.5" stroke-linecap="round" stroke-linejoin="round"/>
<path d="M16 14.5815C16 16.7907 14.2091 18.5815 12 18.5815C9.79086 18.5815 8 16.7907 8 14.5815C8 12.3724 9.79086 10.5815 12 10.5815C12.424 10.5815 12.8326 10.6475 13.2161 10.7697" stroke="#FF6492" stroke-width="1.5" stroke-linecap="round" stroke-linejoin="round"/>
<path d="M14.8805 11.8062C15.0188 11.9497 15.1466 12.1036 15.2624 12.2665" stroke="#FF6492" stroke-width="1.5" stroke-linecap="round" stroke-linejoin="round"/>
<rect x="7.65594" y="5.99414" width="3.37504" height="1.5" rx="0.75" fill="#FF6492"/>
<circle cx="14.9059" cy="6.74414" r="0.5" fill="#FF6492" stroke="#FF6492" stroke-width="0.5"/>
</svg>
