<svg width="24" height="24" viewBox="0 0 24 24" fill="none" xmlns="http://www.w3.org/2000/svg">
<path d="M6.18811 19.9941V21.2454" stroke="#9E8CF8" stroke-width="1.5" stroke-linecap="round"/>
<path d="M18.1881 19.9941V21.2454" stroke="#9E8CF8" stroke-width="1.5" stroke-linecap="round"/>
<path d="M7.80104 1.98877C7.80104 1.98877 8.07594 2.82053 7.80104 3.48877C7.52614 4.15701 7.80104 4.98877 7.80104 4.98877" stroke="#9E8CF8" stroke-width="1.5" stroke-linecap="round"/>
<path d="M12.2572 1.98877C12.2572 1.98877 12.5275 2.82053 12.2572 3.48877C11.9869 4.15701 12.2572 4.98877 12.2572 4.98877" stroke="#9E8CF8" stroke-width="1.5" stroke-linecap="round"/>
<path d="M16.7134 1.98877C16.7134 1.98877 16.9866 2.82053 16.7134 3.48877C16.4402 4.15701 16.7134 4.98877 16.7134 4.98877" stroke="#9E8CF8" stroke-width="1.5" stroke-linecap="round"/>
<path d="M6.18811 11.6919V16.0464" stroke="#9E8CF8" stroke-width="1.5" stroke-linecap="round"/>
<path d="M9.18811 11.6919V16.0464" stroke="#9E8CF8" stroke-width="1.5" stroke-linecap="round"/>
<path d="M12.1881 11.6919V16.0464" stroke="#9E8CF8" stroke-width="1.5" stroke-linecap="round"/>
<path d="M15.1881 11.6919V16.0464" stroke="#9E8CF8" stroke-width="1.5" stroke-linecap="round"/>
<path d="M18.1881 11.6919V16.0464" stroke="#9E8CF8" stroke-width="1.5" stroke-linecap="round"/>
<path d="M2.68811 14.6348C2.68811 18.4629 4.58811 19.9941 9.33811 19.9941H15.0381C19.7881 19.9941 21.6881 18.4629 21.6881 14.6348V13.1035C21.6881 9.27539 19.7881 7.74414 15.0381 7.74414H9.33811C5.77561 7.74414 3.81861 8.60164 3.05861 10.6535" stroke="#9E8CF8" stroke-width="1.5" stroke-linecap="round" stroke-linejoin="round"/>
</svg>
