<svg width="24" height="24" viewBox="0 0 24 24" fill="none" xmlns="http://www.w3.org/2000/svg">
<path d="M9.33616 10.6188C9.12137 11.0322 9 11.5019 9 12C9 13.6569 10.3431 15 12 15C13.6569 15 15 13.6569 15 12C15 10.3431 13.6569 9 12 9C11.8076 9 11.6194 9.01811 11.4371 9.05273" stroke="#FFDE73" stroke-width="1.5" stroke-linecap="round" stroke-linejoin="round"/>
<path d="M21 11.9951L17.7 12.0006" stroke="#FFDE73" stroke-width="1.5" stroke-linecap="round"/>
<path d="M6.297 12L3 11.9949" stroke="#FFDE73" stroke-width="1.5" stroke-linecap="round"/>
<path d="M18.3675 18.3604L16.0302 16.0307" stroke="#FFDE73" stroke-width="1.5" stroke-linecap="round"/>
<path d="M7.96727 7.96729L5.63957 5.63233" stroke="#FFDE73" stroke-width="1.5" stroke-linecap="round"/>
<path d="M12.0051 21L11.9996 17.7" stroke="#FFDE73" stroke-width="1.5" stroke-linecap="round"/>
<path d="M11.9999 6.29688L12.0051 2.99988" stroke="#FFDE73" stroke-width="1.5" stroke-linecap="round"/>
<path d="M5.63954 18.3677L7.96914 16.0304" stroke="#FFDE73" stroke-width="1.5" stroke-linecap="round"/>
<path d="M16.0325 7.96729L18.3675 5.63958" stroke="#FFDE73" stroke-width="1.5" stroke-linecap="round"/>
</svg>
