<svg width="70" height="18" viewBox="0 0 70 18" fill="none" xmlns="http://www.w3.org/2000/svg">
<g clip-path="url(#clip0_600_3710)">
<path d="M18.4027 6.08838H25.482V7.40684H22.694V14.8361H21.1656V7.40684H18.3887L18.3999 6.08838H18.4027ZM25.1797 8.50416H26.487V9.72744H26.5094C26.557 9.55388 26.6381 9.38873 26.7557 9.22637C26.8733 9.06401 27.0132 8.91005 27.1868 8.78408C27.3492 8.64412 27.5367 8.53775 27.7467 8.45657C27.9454 8.37539 28.1554 8.3278 28.3653 8.3278C28.5752 8.3278 28.6452 8.339 28.704 8.339C28.7628 8.35019 28.8328 8.36139 28.8916 8.36139V9.70225C28.7992 9.67985 28.6928 9.66865 28.5892 9.65466C28.4857 9.64346 28.3905 9.63226 28.2869 9.63226C28.0546 9.63226 27.8334 9.67985 27.6207 9.77223C27.4079 9.8646 27.2344 10.0046 27.072 10.1809C26.9209 10.3685 26.7921 10.5896 26.6997 10.8583C26.6074 11.1271 26.5598 11.4406 26.5598 11.7905V14.7997H25.1601L25.1825 8.50136L25.1797 8.50416ZM35.3019 14.8361H33.9247V13.9488H33.9023C33.7287 14.2763 33.4712 14.5198 33.1325 14.7186C32.7938 14.9173 32.4438 15.0097 32.0939 15.0097C31.2653 15.0097 30.6607 14.8109 30.2856 14.391C29.9133 13.9823 29.7257 13.3525 29.7257 12.5239V8.50136H31.1254V12.384C31.1254 12.9438 31.229 13.3413 31.4529 13.5625C31.6628 13.7948 31.9652 13.9124 32.3515 13.9124C32.7378 13.9124 32.8889 13.8648 33.0849 13.7724C33.2836 13.68 33.446 13.5625 33.5636 13.4113C33.6923 13.2601 33.7735 13.0726 33.8323 12.8626C33.8911 12.6527 33.9135 12.4203 33.9135 12.174V8.50136H35.3131V14.8333H35.3019V14.8361ZM37.6813 12.8066C37.7289 13.2153 37.88 13.4953 38.1488 13.6688C38.4175 13.8312 38.745 13.9152 39.1173 13.9152C39.4896 13.9152 39.3973 13.904 39.5596 13.8816C39.722 13.8592 39.8871 13.8228 40.0271 13.764C40.1783 13.7052 40.2958 13.624 40.3882 13.5065C40.4806 13.3889 40.5282 13.2489 40.517 13.0754C40.5058 12.9018 40.447 12.7479 40.3182 12.6331C40.1894 12.5183 40.0383 12.4343 39.8507 12.3532C39.6632 12.2832 39.442 12.2244 39.1985 12.1796C38.9522 12.132 38.7086 12.076 38.4511 12.0172C38.1936 11.9585 37.9388 11.8885 37.6925 11.8073C37.4462 11.7261 37.239 11.6198 37.0403 11.4686C36.8527 11.3286 36.6903 11.1523 36.5868 10.9311C36.4692 10.71 36.4132 10.4525 36.4132 10.1277C36.4132 9.80302 36.4944 9.4979 36.6708 9.26556C36.8331 9.03322 37.0543 8.84567 37.3118 8.7057C37.5693 8.56574 37.8604 8.45937 38.174 8.40338C38.4875 8.3446 38.7926 8.3222 39.0725 8.3222C39.3525 8.3222 39.7136 8.35579 40.0047 8.42578C40.2958 8.49576 40.5757 8.59933 40.8081 8.76449C41.0544 8.91565 41.2504 9.12559 41.4043 9.37193C41.5667 9.61827 41.6619 9.92059 41.7067 10.2705H40.2482C40.1783 9.93179 40.0271 9.71064 39.7948 9.59307C39.5484 9.47551 39.2825 9.41952 38.9662 9.41952C38.6498 9.41952 38.745 9.43072 38.6163 9.44191C38.4763 9.46431 38.3587 9.4895 38.2328 9.53429C38.1152 9.58188 38.0116 9.65186 37.9304 9.73304C37.8492 9.81422 37.8017 9.93179 37.8017 10.0718C37.8017 10.2117 37.8604 10.3741 37.9752 10.4804C38.0928 10.584 38.244 10.668 38.4427 10.7492C38.6303 10.8192 38.8514 10.8779 39.0949 10.9227C39.3385 10.9675 39.596 11.0263 39.8535 11.0851C40.1111 11.1439 40.3546 11.2139 40.6009 11.295C40.8473 11.3762 41.0684 11.4826 41.2532 11.6337C41.4407 11.7737 41.6031 11.9501 41.7207 12.1572C41.8382 12.3672 41.8942 12.6359 41.8942 12.9382C41.8942 13.2405 41.813 13.6268 41.6367 13.8956C41.4631 14.1531 41.2392 14.3742 40.9704 14.5366C40.7017 14.699 40.3882 14.8165 40.0607 14.8977C39.722 14.9677 39.3945 15.0153 39.0697 15.0153C38.745 15.0153 38.2999 14.9677 37.9612 14.8753C37.6225 14.7829 37.3202 14.643 37.0739 14.4666C36.8275 14.2791 36.6316 14.0579 36.4916 13.778C36.3516 13.5093 36.2705 13.1817 36.2593 12.7982H37.6701V12.8094H37.6813V12.8066ZM42.2889 8.50416H43.3498V6.59225H44.7495V8.49296H46.0091V9.53149H44.7495V12.913C44.7495 13.0642 44.7607 13.1817 44.7719 13.2965C44.7831 13.4001 44.8195 13.4953 44.853 13.5652C44.9006 13.6352 44.9706 13.694 45.0518 13.7276C45.1442 13.7612 45.2617 13.7864 45.4241 13.7864C45.5865 13.7864 45.6228 13.7864 45.7152 13.7752C45.8076 13.764 45.914 13.7528 46.0063 13.7276V14.8109C45.8552 14.8333 45.704 14.8445 45.5529 14.8585C45.4017 14.8809 45.2617 14.8809 45.0994 14.8809C44.7271 14.8809 44.4332 14.8473 44.212 14.7773C43.9909 14.7074 43.8145 14.6038 43.6885 14.475C43.5598 14.335 43.4786 14.1727 43.431 13.9739C43.3834 13.7752 43.361 13.5317 43.3498 13.2741V9.54269H42.2889V8.48176V8.50416ZM46.9889 8.50416H48.3074V9.36633H48.3297C48.5285 8.99403 48.7972 8.7365 49.1471 8.57414C49.497 8.41178 49.8693 8.3278 50.2892 8.3278C50.7091 8.3278 51.2214 8.40898 51.5965 8.59653C51.9688 8.77009 52.2739 9.00523 52.5175 9.31875C52.7638 9.62107 52.9486 9.98497 53.0661 10.3909C53.1837 10.7968 53.2537 11.2418 53.2537 11.6981C53.2537 12.1544 53.1949 12.5379 53.0913 12.9354C52.9738 13.3329 52.8114 13.694 52.5903 13.9963C52.3691 14.2987 52.0892 14.545 51.7393 14.7297C51.3894 14.9173 50.9919 15.0097 50.5272 15.0097C50.0625 15.0097 50.1185 14.9873 49.9197 14.9509C49.721 14.9173 49.5222 14.8585 49.3375 14.7773C49.1499 14.6962 48.9764 14.5898 48.8252 14.461C48.6629 14.3323 48.5341 14.1811 48.4277 14.0187H48.4053V17.1791H47.0057V8.50136H46.9945L46.9889 8.50416ZM51.8764 11.6757C51.8764 11.3958 51.8428 11.1159 51.7589 10.8472C51.6889 10.5784 51.5713 10.3461 51.4201 10.1361C51.269 9.92619 51.0814 9.76383 50.8715 9.63506C50.6503 9.5063 50.3928 9.44751 50.1129 9.44751C49.5306 9.44751 49.0856 9.64626 48.7832 10.055C48.4921 10.4637 48.3409 11.0123 48.3409 11.6869C48.3409 12.3616 48.3745 12.3056 48.4585 12.5743C48.5425 12.843 48.6461 13.0754 48.8084 13.2741C48.9596 13.4729 49.1471 13.624 49.3683 13.7416C49.5894 13.8592 49.8358 13.9152 50.1269 13.9152C50.418 13.9152 50.7091 13.8452 50.9303 13.7164C51.1514 13.5876 51.3278 13.4141 51.4789 13.2153C51.6189 13.0054 51.7253 12.7731 51.7813 12.5043C51.84 12.2244 51.8736 11.9557 51.8736 11.6757H51.8764ZM54.337 6.08838H55.7366V7.40684H54.337V6.08838ZM54.337 8.50416H55.7366V14.8361H54.337V8.50416ZM56.9851 6.08838H58.3847V14.8361H56.9851V6.08838ZM62.6536 15.0125C62.1526 15.0125 61.6963 14.9313 61.3016 14.7549C60.9041 14.5814 60.5794 14.3574 60.2995 14.0663C60.0307 13.7752 59.8208 13.4141 59.6808 13.0054C59.5409 12.5967 59.4597 12.1432 59.4597 11.6645C59.4597 11.1859 59.5297 10.7436 59.6808 10.3349C59.8208 9.92619 60.0307 9.57628 60.2995 9.27396C60.5682 8.98283 60.9069 8.75049 61.3016 8.58533C61.6991 8.42298 62.1526 8.3278 62.6536 8.3278C63.1547 8.3278 63.611 8.40898 64.0057 8.58533C64.4032 8.74769 64.7279 8.98283 65.0078 9.27396C65.2766 9.56508 65.4865 9.92619 65.6265 10.3349C65.7665 10.7436 65.8476 11.1859 65.8476 11.6645C65.8476 12.1432 65.7776 12.5967 65.6265 13.0054C65.4753 13.4141 65.2766 13.764 65.0078 14.0663C64.7391 14.3574 64.4004 14.5898 64.0057 14.7549C63.6082 14.9173 63.1659 15.0125 62.6536 15.0125ZM62.6536 13.904C62.956 13.904 63.2359 13.834 63.4598 13.7052C63.6922 13.5764 63.8685 13.4029 64.0197 13.1929C64.1709 12.983 64.2772 12.7395 64.3472 12.4819C64.4172 12.2132 64.4536 11.9445 64.4536 11.6645C64.4536 11.3846 64.42 11.1271 64.3472 10.8611C64.2772 10.5924 64.1737 10.3601 64.0197 10.1501C63.8657 9.94018 63.681 9.77783 63.4598 9.64906C63.2275 9.52029 62.9588 9.45031 62.6536 9.45031C62.3485 9.45031 62.0714 9.52029 61.8475 9.64906C61.6151 9.77783 61.4388 9.95138 61.2876 10.1501C61.1364 10.3601 61.0301 10.5924 60.9601 10.8611C60.8901 11.1299 60.8537 11.3986 60.8537 11.6645C60.8537 11.9305 60.8873 12.2132 60.9601 12.4819C61.0301 12.7507 61.1336 12.983 61.2876 13.1929C61.4388 13.4029 61.6263 13.5764 61.8475 13.7052C62.0798 13.8452 62.3485 13.904 62.6536 13.904ZM66.2703 8.50416H67.3312V6.59225H68.7309V8.49296H69.9906V9.53149H68.7309V12.913C68.7309 13.0642 68.7421 13.1817 68.7533 13.2965C68.7645 13.4001 68.8009 13.4953 68.8345 13.5652C68.882 13.6352 68.952 13.694 69.0332 13.7276C69.1256 13.7612 69.2432 13.7864 69.4055 13.7864C69.5679 13.7864 69.6043 13.7864 69.6966 13.7752C69.789 13.764 69.8954 13.7528 69.9878 13.7276V14.8109C69.8366 14.8333 69.6854 14.8445 69.5315 14.8585C69.3803 14.8809 69.2404 14.8809 69.0752 14.8809C68.7029 14.8809 68.409 14.8473 68.1878 14.7773C67.9667 14.7074 67.7903 14.6038 67.6644 14.475C67.5356 14.335 67.4544 14.1727 67.4068 13.9739C67.3592 13.7752 67.3368 13.5317 67.3256 13.2741V9.54269H66.2647V8.48176V8.50416H66.2703Z" fill="black"/>
<path d="M16.7718 6.08843H10.3671L8.3964 0L6.41451 6.08843L0.00976562 6.07723L5.18843 9.84506L3.20654 15.9335L8.3852 12.1657L13.5639 15.9335L11.5932 9.84506L16.7718 6.08843Z" fill="#00B67A"/>
<path d="M12.0355 11.2195L11.5933 9.84229L8.39648 12.1629L12.0355 11.2167V11.2195Z" fill="#005128"/>
</g>
<defs>
<clipPath id="clip0_600_3710">
<rect width="70" height="17.192" fill="white"/>
</clipPath>
</defs>
</svg>
